<?xml version="1.0" encoding="utf-8"?>
<!-- Generator: Adobe Illustrator 21.0.2, SVG Export Plug-In . SVG Version: 6.00 Build 0)  -->
<svg version="1.1" xmlns="http://www.w3.org/2000/svg" xmlns:xlink="http://www.w3.org/1999/xlink" x="0px" y="0px"
	 viewBox="0 0 320 320" style="enable-background:new 0 0 320 320;" xml:space="preserve">
<style type="text/css">
	.st0{fill:#E02429;}
	.st1{display:none;}
	.st2{display:inline;fill:none;stroke:#00ADEE;stroke-width:0.25;}
	.st3{display:inline;}
	.st4{fill:none;stroke:#00ADEE;stroke-width:0.25;}
</style>
<g id="Logo">
	<g>
		<circle class="st0" cx="159.512" cy="150.831" r="10.704"/>
		<circle class="st0" cx="246.481" cy="100.654" r="10.704"/>
		<circle class="st0" cx="246.481" cy="165.915" r="10.704"/>
		<circle class="st0" cx="246.481" cy="133.285" r="10.704"/>
		
			<ellipse transform="matrix(0.5002 -0.8659 0.8659 0.5002 36.1243 198.604)" class="st0" cx="190.096" cy="68.011" rx="10.704" ry="10.704"/>
		
			<ellipse transform="matrix(0.5002 -0.8659 0.8659 0.5002 36.1151 231.2294)" class="st0" cx="218.352" cy="84.331" rx="10.704" ry="10.704"/>
		<circle class="st0" cx="217.491" cy="117.379" r="10.704"/>
		<circle class="st0" cx="188.501" cy="134.105" r="10.704"/>
		<g>
			<path class="st0" d="M169.041,236.136v-61.744c0-1.657-1.343-3-3-3l0,0c-3.793,2.016-9.05,2.121-13,0l0,0c-1.657,0-3,1.343-3,3
				v61.744l-34.906-20.149c-2-1.155-4.5,0.289-4.5,2.599l0.004,15.014c0,1.072,0.572,2.062,1.5,2.597l45.9,26.496
				c0.928,0.536,2.072,0.536,3.001-0.001l45.848-26.491c0.928-0.536,1.499-1.526,1.499-2.598v-15.016
				c0-2.31-2.501-3.753-4.501-2.597L169.041,236.136z"/>
		</g>
		<g>
			<path class="st0" d="M80.86,116.369l53.472,30.872c1.435,0.828,3.27,0.337,4.098-1.098l0,0c0.151-4.293,2.688-8.899,6.5-11.258
				l0,0c0.828-1.435,0.337-3.27-1.098-4.098L90.36,99.914l34.902-20.155c2-1.155,2-4.042-0.001-5.196l-13.005-7.503
				c-0.928-0.536-2.071-0.535-2.999,0.001L63.36,93.563c-0.928,0.536-1.5,1.527-1.5,2.599l0.018,52.951
				c0,1.071,0.572,2.061,1.5,2.597l13.004,7.508c2.001,1.155,4.501-0.29,4.5-2.6L80.86,116.369z"/>
		</g>
	</g>
</g>
<g id="Guides" class="st1">
	<line class="st2" x1="-0.018" y1="235.212" x2="320.018" y2="235.212"/>
	<line class="st2" x1="-0.018" y1="119.222" x2="320.018" y2="119.222"/>
	<line class="st2" x1="-90.664" y1="-5.3" x2="410.664" y2="-5.3"/>
	<line class="st2" x1="-90.664" y1="325.3" x2="410.664" y2="325.3"/>
	<line class="st2" x1="257.34" y1="-5.3" x2="257.34" y2="325.3"/>
	<line class="st2" x1="320.018" y1="-90" x2="320.018" y2="410"/>
	<line class="st2" x1="61.914" y1="-5.3" x2="61.914" y2="325.3"/>
	<line class="st2" x1="-0.018" y1="-90" x2="-0.018" y2="410"/>
	<rect x="-0.018" y="56.631" class="st2" width="320.035" height="206.737"/>
	<g class="st3">
		<polygon class="st4" points="159.716,37.505 257.518,93.971 257.518,206.903 159.716,263.369 61.914,206.903 61.914,93.971 		"/>
		<line class="st4" x1="257.518" y1="93.971" x2="61.914" y2="93.971"/>
		<polyline class="st4" points="61.914,93.971 159.716,150.437 257.518,93.971 		"/>
		<line class="st4" x1="61.914" y1="150.437" x2="257.518" y2="150.437"/>
		<polyline class="st4" points="257.518,206.903 159.716,150.437 61.914,206.903 		"/>
		<line class="st4" x1="159.716" y1="263.369" x2="159.716" y2="37.505"/>
		<line class="st4" x1="208.617" y1="65.738" x2="61.914" y2="150.437"/>
		<line class="st4" x1="110.815" y1="65.738" x2="257.518" y2="150.437"/>
		<line class="st4" x1="61.914" y1="206.903" x2="257.518" y2="206.903"/>
		<line class="st4" x1="110.815" y1="235.136" x2="257.518" y2="150.437"/>
		<line class="st4" x1="208.617" y1="235.136" x2="61.914" y2="150.437"/>
	</g>
</g>
</svg>
