<?xml version="1.0" standalone="no"?>
<!DOCTYPE svg PUBLIC "-//W3C//DTD SVG 20010904//EN"
 "http://www.w3.org/TR/2001/REC-SVG-20010904/DTD/svg10.dtd">
<svg version="1.0" xmlns="http://www.w3.org/2000/svg"
 width="202.000000pt" height="202.000000pt" viewBox="0 0 202.000000 202.000000"
 preserveAspectRatio="xMidYMid meet">
<metadata>
Created by potrace 1.11, written by Peter Selinger 2001-2013
</metadata>
<g transform="translate(0.000000,202.000000) scale(0.100000,-0.100000)"
fill="#000000" stroke="none">
<path d="M1243 1995 c-41 -17 -63 -51 -63 -97 0 -54 33 -89 92 -95 42 -5 50
-3 78 25 77 78 -7 209 -107 167z"/>
<path d="M493 1873 c-37 -20 -79 -43 -93 -53 -14 -9 -60 -37 -104 -61 -43 -24
-99 -57 -125 -72 -25 -15 -56 -33 -68 -39 -12 -6 -24 -20 -27 -32 -8 -28 -8
-520 0 -540 9 -23 128 -88 148 -80 9 3 20 14 25 23 4 9 7 100 6 204 0 103 1
187 3 187 2 0 97 -55 210 -121 114 -67 223 -131 242 -141 19 -11 41 -25 47
-30 17 -13 43 -3 43 17 0 17 43 90 60 100 23 14 7 35 -57 72 -288 166 -453
267 -446 274 4 4 76 46 160 94 83 47 159 95 168 105 24 26 8 50 -64 93 l-60
36 -68 -36z"/>
<path d="M1492 1815 c-54 -45 -45 -125 18 -164 85 -51 189 49 141 136 -28 54
-111 68 -159 28z"/>
<path d="M1796 1665 c-10 -8 -22 -16 -27 -17 -4 -2 -14 -19 -22 -38 -20 -48
-6 -95 36 -120 39 -24 59 -25 102 -5 50 24 69 84 44 138 -20 45 -96 69 -133
42z"/>
<path d="M1523 1505 c-86 -37 -86 -154 0 -190 55 -23 119 11 136 72 23 83 -56
152 -136 118z"/>
<path d="M1233 1334 c-40 -20 -64 -75 -52 -118 13 -46 45 -69 96 -70 39 -1 49
4 78 35 43 48 42 100 -5 142 -34 31 -70 34 -117 11z"/>
<path d="M1775 1327 c-20 -16 -28 -35 -32 -68 -5 -40 -2 -50 23 -78 54 -59
138 -45 167 28 40 99 -78 187 -158 118z"/>
<path d="M963 1175 c-76 -32 -81 -145 -9 -179 42 -20 59 -20 96 -1 89 46 64
180 -35 191 -12 1 -35 -4 -52 -11z"/>
<path d="M1813 1022 c-12 -2 -34 -17 -49 -35 -22 -26 -25 -38 -21 -75 6 -57
32 -83 91 -89 42 -5 48 -3 76 27 71 77 8 190 -97 172z"/>
<path d="M916 882 c-3 -3 -6 -142 -6 -308 l0 -303 -137 81 c-200 116 -210 120
-233 108 -12 -6 -20 -22 -21 -38 -4 -78 0 -124 11 -137 10 -12 66 -47 145 -90
11 -6 52 -30 90 -52 66 -38 88 -51 192 -110 39 -22 45 -23 70 -11 28 15 315
179 408 235 l50 29 1 75 c2 55 -2 78 -13 92 -9 9 -20 17 -26 17 -5 0 -83 -43
-174 -95 -90 -52 -168 -95 -172 -95 -4 0 -7 132 -6 293 0 160 -3 297 -8 304
-5 6 -14 10 -20 8 -30 -10 -92 -12 -117 -5 -16 5 -31 6 -34 2z"/>
</g>
</svg>
